<svg width="82" height="117" viewBox="0 0 82 117" fill="none" xmlns="http://www.w3.org/2000/svg">
<rect x="1" y="6.56836" width="71" height="71" rx="5.5" stroke="#2B5418"/>
<path fill-rule="evenodd" clip-rule="evenodd" d="M20.5 24.5684V22.0684H52.5V24.5684H55V27.0684H52.5V29.5684H50V32.0684H52.5V34.5684H55V37.0684H52.5V39.5684H50V42.0684H52.5V44.5684H55V47.0684H52.5V49.5684H50V52.0684H52.5V54.5684H55V57.0684H52.5V59.5684H20.5V57.0684H18V54.5684H20.5V52.0684H23V49.5684H20.5V47.0684H18V44.5684H20.5V42.0684H23V39.5684H20.5V37.0684H18V34.5684H20.5V32.0684H23V29.5684H20.5V27.0684H18V24.5684H20.5ZM25.5 29.5684V32.0684H27V34.5684H25.5V37.0684H27V39.5684H25.5V42.0684H27V44.5684H25.5V47.0684H27V49.5684H25.5V52.0684H27V54.5684H25.5V57.0684H47.5V54.5684H46V52.0684H47.5V49.5684H46V47.0684H47.5V44.5684H46V42.0684H47.5V39.5684H46V37.0684H47.5V34.5684H46V32.0684H47.5V29.5684H25.5ZM29.5 32.0684V34.5684H31V37.0684H29.5V39.5684H31V42.0684H29.5V44.5684H31V47.0684H29.5V49.5684H31V52.0684H29.5V54.5684H43.5V52.0684H42V49.5684H43.5V47.0684H42V44.5684H43.5V42.0684H42V39.5684H43.5V37.0684H42V34.5684H43.5V32.0684H29.5ZM33.5 34.5684V37.0684H35V39.5684H33.5V42.0684H35V44.5684H33.5V47.0684H35V49.5684H33.5V52.0684H39.5V49.5684H38V47.0684H39.5V44.5684H38V42.0684H39.5V39.5684H38V37.0684H39.5V34.5684H33.5Z" fill="#78E846"/>
<path d="M2.437 101.211V100.106H1.293V93.8924H2.437V92.7744H6.389V93.8924H7.546V96.7654H5.882V94.5554H2.944V99.4434H5.882V97.2074H7.546V100.106H6.389V101.211H2.437ZM10.426 101.211V100.106H9.282V93.8924H10.426V92.7744H14.378V93.8924H15.535V100.106H14.378V101.211H10.426ZM10.933 99.4434H13.871V94.5554H10.933V99.4434ZM18.4052 101.211V94.9974H19.5492V93.8924H20.7062V92.7744H22.3572V93.8924H23.5142V94.9974H24.6712V101.211H23.0072V98.9884H20.0692V101.211H18.4052ZM20.0692 97.2074H23.0072V95.6604H21.8632V94.5554H21.2132V95.6604H20.0692V97.2074ZM27.5512 101.211V100.106H26.4072V92.7744H28.0582V99.4434H30.9962V98.3254H32.6602V100.106H31.5032V101.211H27.5512ZM35.5402 101.211V100.106H34.3962V93.8924H35.5402V92.7744H39.4922V93.8924H40.6492V95.6604H38.9852V94.5554H36.0472V96.1154H38.3482V97.8704H36.0472V99.4434H38.9852V98.3254H40.6492V100.106H39.4922V101.211H35.5402ZM44.6732 101.211V92.7744H46.3242V96.1154H46.9612V94.9974H48.6252V96.1154H49.2622V92.7744H50.9262V101.211H49.2622V97.8704H46.3242V101.211H44.6732ZM54.9502 101.211V100.106H53.8062V93.8924H54.9502V92.7744H58.9022V93.8924H60.0592V100.106H58.9022V101.211H54.9502ZM55.4572 99.4434H58.3952V94.5554H55.4572V99.4434Z" fill="#78E846"/>
<path d="M2.437 116.211V115.106H1.293V108.892H2.437V107.774H6.389V108.892H7.546V112.87H6.389V113.988H5.83V114.443H6.961V116.211H5.323V115.106H4.153V113.988H2.944V116.211H2.437ZM2.944 112.207H5.882V109.555H2.944V112.207ZM11.57 116.211V115.106H10.426V108.892H11.57V107.774H15.522V108.892H16.679V115.106H15.522V116.211H11.57ZM12.077 114.443H15.015V109.555H12.077V114.443ZM19.559 116.211V115.106H18.415V108.892H19.559V107.774H23.511V108.892H24.668V115.106H23.511V116.211H19.559ZM20.066 114.443H23.004V109.555H20.066V114.443ZM26.3942 116.211V115.106H25.2502V108.892H26.3942V107.774H30.3462V108.892H31.5032V115.106H30.3462V116.211H26.3942ZM26.9012 114.443H29.8392V109.555H26.9012V114.443ZM34.3832 116.211V115.106H33.2392V113.325H34.8902V114.443H37.8282V112.87H34.3832V111.765H33.2392V108.892H34.3832V107.774H38.3352V108.892H39.4922V110.66H37.8282V109.555H34.8902V111.115H38.3352V112.207H39.4922V115.106H38.3352V116.211H34.3832ZM42.3722 116.211V115.106H41.2282V108.892H42.3722V107.774H46.3242V108.892H47.4812V115.106H46.3242V116.211H42.3722ZM42.8792 114.443H45.8172V109.555H42.8792V114.443ZM50.3612 116.211V115.106H49.2172V108.892H50.3612V107.774H54.3132V108.892H55.4702V115.106H54.3132V116.211H50.3612ZM50.8682 114.443H53.8062V109.555H50.8682V114.443Z" fill="#78E846"/>
<rect width="39" height="15" transform="translate(42.5 0.0683594)" fill="#78E846"/>
<path d="M48.4382 11.1784V10.3284H47.5582V4.68836H48.8282V9.81836H51.0882V8.95836H52.3682V10.3284H51.4782V11.1784H48.4382ZM56.3436 11.1784V10.3284H55.4636V8.60836H54.5836V4.68836H55.8536V8.09836H56.7336V9.81836H57.2336V8.09836H58.1136V4.68836H59.3936V8.60836H58.5036V10.3284H57.6236V11.1784H56.3436ZM62.489 11.1784V10.3284H61.609V4.68836H62.879V9.81836H65.139V8.95836H66.419V10.3284H65.529V11.1784H62.489ZM72.5164 11.1784V10.3284H71.6364V5.54836H72.5164V4.68836H75.5564V5.54836H76.4464V6.90836H75.1664V6.05836H72.9064V7.25836H75.5564V8.09836H76.4464V10.3284H75.5564V11.1784H72.5164ZM72.9064 9.81836H75.1664V8.60836H72.9064V9.81836Z" fill="black"/>
</svg>