<svg width="82" height="117" viewBox="0 0 82 117" fill="none" xmlns="http://www.w3.org/2000/svg">
<rect x="1" y="6.56836" width="71" height="71" rx="5.5" stroke="#2B5418"/>
<path fill-rule="evenodd" clip-rule="evenodd" d="M24.5631 25.466V23.0942H15.0137V27.8378H26.9505V25.466H24.5631ZM31.7253 23.0942H26.9505V25.466H31.7253V23.0942ZM31.7253 27.8378H26.9505V30.2095H31.7253V27.8378ZM31.7253 34.9531V32.5813H26.9505V34.9531H31.7253ZM31.7253 39.6966V37.3248H26.9505V39.6966H31.7253ZM31.7253 44.4401V42.0683H26.9505V44.4401H31.7253ZM43.6621 44.4401V42.0683H38.8874V44.4401H43.6621ZM43.6621 39.6966V37.3248H38.8874V39.6966H43.6621ZM43.6621 34.9531V32.5813H38.8874V34.9531H43.6621ZM43.6621 27.8378H38.8874V30.2095H43.6621V27.8378ZM43.6621 23.0942H38.8874V25.466H43.6621V23.0942ZM36.5 25.466V23.0942H34.1126V27.8378H38.8874V25.466H36.5ZM36.5 42.0683H38.8874V39.6966H36.5V37.3248H38.8874V34.9531H36.5V32.5813H38.8874V30.2095H34.1126V44.4401H36.5V42.0683ZM31.7253 49.1837V46.8119H26.9505V44.4401H24.5631V42.0683H26.9505V39.6966H24.5631V37.3248H26.9505V34.9531H24.5631V32.5813H26.9505V30.2095H15.0137V53.9272H29.3379V49.1837H31.7253ZM43.6621 49.1837H41.2747V46.8119H34.1126V49.1837H31.7253V53.9272H29.3379V56.299H46.0495V51.5555H43.6621V49.1837ZM15.0137 61.0425H26.9505V58.6707H29.3379V56.299H15.0137V61.0425ZM46.0495 61.0425V58.6707H29.3379V61.0425H46.0495ZM48.4368 61.0425H57.9863V58.6707H48.4368V61.0425ZM55.5989 51.5555V49.1837H53.2116V46.8119H48.4368V49.1837H46.0495V51.5555H48.4368V56.299H57.9863V51.5555H55.5989ZM46.0495 46.8119H43.6621V49.1837H46.0495V46.8119Z" fill="#78E846"/>
<path d="M2.437 101.211V100.106H1.293V92.7744H2.944V99.4434H5.882V98.3254H7.546V100.106H6.389V101.211H2.437ZM11.57 101.211V100.106H10.426V93.8924H11.57V92.7744H15.522V93.8924H16.679V95.6604H15.015V94.5554H12.077V96.1154H14.378V97.8704H12.077V99.4434H15.015V98.3254H16.679V100.106H15.522V101.211H11.57ZM19.559 101.211V94.9974H20.703V93.8924H21.847V92.7744H23.511V93.8924H24.655V94.9974H25.812V101.211H24.148V98.9884H21.21V101.211H19.559ZM21.21 97.2074H24.148V95.6604H23.004V94.5554H22.354V95.6604H21.21V97.2074ZM30.2056 101.211V94.5554H29.5686V95.6604H27.9176V93.8924H29.0616V92.7744H33.0136V93.8924H34.1706V95.6604H32.5066V94.5554H31.8696V101.211H30.2056ZM36.6571 101.211V92.7744H38.3081V96.1154H38.9451V94.9974H40.6091V96.1154H41.2461V92.7744H42.9101V101.211H41.2461V97.8704H38.3081V101.211H36.6571ZM46.9341 101.211V100.106H45.7901V93.8924H46.9341V92.7744H50.8861V93.8924H52.0431V95.6604H50.3791V94.5554H47.4411V96.1154H49.7421V97.8704H47.4411V99.4434H50.3791V98.3254H52.0431V100.106H50.8861V101.211H46.9341ZM54.9231 101.211V93.8924H56.0671V92.7744H60.0191V93.8924H61.1761V97.8704H60.0191V98.9884H59.4601V99.4434H60.5911V101.211H58.9531V100.106H57.7831V98.9884H56.5741V101.211H54.9231ZM56.5741 97.2074H59.5121V94.5554H56.5741V97.2074ZM2.437 116.211V115.106H1.293V108.892H2.437V107.774H6.389V108.892H7.546V111.765H6.389V112.207H7.546V115.106H6.389V116.211H2.437ZM2.944 114.443H5.882V112.87H3.581V111.115H5.882V109.555H2.944V114.443ZM11.57 116.211V115.106H10.426V108.892H11.57V107.774H15.522V108.892H16.679V115.106H15.522V116.211H11.57ZM12.077 114.443H15.015V109.555H12.077V114.443ZM20.703 116.211V115.106H19.559V108.892H20.703V107.774H24.655V108.892H25.812V115.106H24.655V116.211H20.703ZM21.21 114.443H24.148V109.555H21.21V114.443ZM30.7261 116.211V109.555H30.0891V110.66H28.4381V108.892H29.5821V107.774H33.5341V108.892H34.6911V110.66H33.0271V109.555H32.3901V116.211H30.7261ZM38.4612 116.211V115.106H37.3172V113.325H38.9682V114.443H41.9062V112.87H38.4612V111.765H37.3172V108.892H38.4612V107.774H42.4132V108.892H43.5702V110.66H41.9062V109.555H38.9682V111.115H42.4132V112.207H43.5702V115.106H42.4132V116.211H38.4612Z" fill="#78E846"/>
<rect width="39" height="15" transform="translate(42.5 0.0683594)" fill="#78E846"/>
<path d="M48.4382 11.1784V10.3284H47.5582V4.68836H48.8282V9.81836H51.0882V8.95836H52.3682V10.3284H51.4782V11.1784H48.4382ZM56.3436 11.1784V10.3284H55.4636V8.60836H54.5836V4.68836H55.8536V8.09836H56.7336V9.81836H57.2336V8.09836H58.1136V4.68836H59.3936V8.60836H58.5036V10.3284H57.6236V11.1784H56.3436ZM62.489 11.1784V10.3284H61.609V4.68836H62.879V9.81836H65.139V8.95836H66.419V10.3284H65.529V11.1784H62.489ZM72.5164 11.1784V10.3284H71.6364V5.54836H72.5164V4.68836H75.5564V5.54836H76.4464V6.90836H75.1664V6.05836H72.9064V7.25836H75.5564V8.09836H76.4464V10.3284H75.5564V11.1784H72.5164ZM72.9064 9.81836H75.1664V8.60836H72.9064V9.81836Z" fill="black"/>
</svg>
