<svg width="82" height="117" viewBox="0 0 82 117" fill="none" xmlns="http://www.w3.org/2000/svg">
<rect x="1" y="6.56836" width="71" height="71" rx="5.5" stroke="#2B5418"/>
<path d="M34.2734 42.4375H35.7534V48.3575H34.2734V42.4375Z" fill="#78E846"/>
<path d="M37.2344 42.4375H38.7144V48.3575H37.2344V42.4375Z" fill="#78E846"/>
<path d="M32.7969 48.3594H34.2769V52.7994H32.7969V48.3594Z" fill="#78E846"/>
<path d="M38.7188 48.3594H40.1988V52.7994H38.7188V48.3594Z" fill="#78E846"/>
<path d="M31.3203 52.7988H32.8003V54.2788H31.3203V52.7988Z" fill="#78E846"/>
<path d="M40.1953 52.7988H41.6753V54.2788H40.1953V52.7988Z" fill="#78E846"/>
<path d="M32.7969 54.2793H40.1969V55.7593H32.7969V54.2793Z" fill="#78E846"/>
<path d="M38.7188 40.959H40.1988V42.439H38.7188V40.959Z" fill="#78E846"/>
<path d="M40.1953 39.4785H47.5953V40.9585H40.1953V39.4785Z" fill="#78E846"/>
<path d="M32.7969 40.959H34.2769V42.439H32.7969V40.959Z" fill="#78E846"/>
<path d="M25.3984 39.4785H32.7984V40.9585H25.3984V39.4785Z" fill="#78E846"/>
<path d="M47.5938 40.959H49.0738V43.919H47.5938V40.959Z" fill="#78E846"/>
<path d="M46.1172 43.918H47.5972V45.398H46.1172V43.918Z" fill="#78E846"/>
<path d="M44.6328 45.3984H46.1128V54.2784H44.6328V45.3984Z" fill="#78E846"/>
<path d="M43.1562 54.2793H44.6363V55.7593H43.1562V54.2793Z" fill="#78E846"/>
<path d="M44.6328 55.7578H52.0328V57.2378H44.6328V55.7578Z" fill="#78E846"/>
<path d="M23.9141 40.959H25.3941V43.919H23.9141V40.959Z" fill="#78E846"/>
<path d="M25.3984 43.918H26.8784V45.398H25.3984V43.918Z" fill="#78E846"/>
<path d="M26.875 45.3984H28.355V54.2784H26.875V45.3984Z" fill="#78E846"/>
<path d="M28.3594 54.2793H29.8394V55.7593H28.3594V54.2793Z" fill="#78E846"/>
<path d="M20.9531 55.7578H28.3531V57.2378H20.9531V55.7578Z" fill="#78E846"/>
<path d="M19.4766 37.998H20.9566V55.758H19.4766V37.998Z" fill="#78E846"/>
<path d="M52.0391 37.998H53.5191V55.758H52.0391V37.998Z" fill="#78E846"/>
<path d="M22.4375 32.8184H23.9175V36.5184H22.4375V32.8184Z" fill="#78E846"/>
<path d="M49.0781 32.8184H50.5581V36.5184H49.0781V32.8184Z" fill="#78E846"/>
<path d="M23.9141 31.3379H25.3941V32.8179H23.9141V31.3379Z" fill="#78E846"/>
<path d="M47.5938 31.3379H49.0738V32.8179H47.5938V31.3379Z" fill="#78E846"/>
<path d="M25.3984 29.8594H28.3584V31.3394H25.3984V29.8594Z" fill="#78E846"/>
<path d="M44.6328 29.8594H47.5928V31.3394H44.6328V29.8594Z" fill="#78E846"/>
<path d="M28.3594 28.3789H29.8394V29.8589H28.3594V28.3789Z" fill="#78E846"/>
<path d="M43.1562 28.3789H44.6363V29.8589H43.1562V28.3789Z" fill="#78E846"/>
<path d="M29.8359 26.8984H43.1559V28.3784H29.8359V26.8984Z" fill="#78E846"/>
<path d="M20.9531 36.5176H22.4331V37.9976H20.9531V36.5176Z" fill="#78E846"/>
<path d="M50.5547 36.5176H52.0347V37.9976H50.5547V36.5176Z" fill="#78E846"/>
<path d="M2.437 101.211V100.106H1.293V98.3254H2.944V99.4434H5.882V97.8704H2.437V96.7654H1.293V93.8924H2.437V92.7744H6.389V93.8924H7.546V95.6604H5.882V94.5554H2.944V96.1154H6.389V97.2074H7.546V100.106H6.389V101.211H2.437ZM12.4601 101.211V94.5554H11.8231V95.6604H10.1721V93.8924H11.3161V92.7744H15.2681V93.8924H16.4251V95.6604H14.7611V94.5554H14.1241V101.211H12.4601ZM20.0556 101.211V100.106H18.9116V93.8924H20.0556V92.7744H24.0076V93.8924H25.1646V95.6604H23.5006V94.5554H20.5626V96.1154H22.8636V97.8704H20.5626V99.4434H23.5006V98.3254H25.1646V100.106H24.0076V101.211H20.0556ZM29.1886 101.211V100.106H28.0446V93.8924H29.1886V92.7744H33.1406V93.8924H34.2976V95.6604H32.6336V94.5554H29.6956V96.1154H31.9966V97.8704H29.6956V99.4434H32.6336V98.3254H34.2976V100.106H33.1406V101.211H29.1886ZM38.3216 101.211V100.106H37.1776V92.7744H38.8286V99.4434H41.7666V98.3254H43.4306V100.106H42.2736V101.211H38.3216ZM1.293 116.211V107.774H2.944V111.115H3.581V109.997H5.245V111.115H5.882V107.774H7.546V116.211H5.882V112.87H2.944V116.211H1.293ZM11.57 116.211V115.106H10.426V108.892H11.57V107.774H15.522V108.892H16.679V110.66H15.015V109.555H12.077V111.115H14.378V112.87H12.077V114.443H15.015V113.325H16.679V115.106H15.522V116.211H11.57ZM20.703 116.211V115.106H19.559V107.774H21.21V114.443H24.148V113.325H25.812V115.106H24.655V116.211H20.703ZM28.692 116.211V108.892H29.836V107.774H31.487V108.892H32.644V111.115H33.281V108.892H34.438V107.774H36.102V108.892H37.233V116.211H35.595V109.555H34.945V111.765H33.788V115.106H32.137V111.765H30.98V109.555H30.343V116.211H28.692Z" fill="#78E846"/>
<rect width="39" height="15" transform="translate(42.5 0.0683594)" fill="#78E846"/>
<path d="M48.4382 11.1784V10.3284H47.5582V4.68836H48.8282V9.81836H51.0882V8.95836H52.3682V10.3284H51.4782V11.1784H48.4382ZM56.3436 11.1784V10.3284H55.4636V8.60836H54.5836V4.68836H55.8536V8.09836H56.7336V9.81836H57.2336V8.09836H58.1136V4.68836H59.3936V8.60836H58.5036V10.3284H57.6236V11.1784H56.3436ZM62.489 11.1784V10.3284H61.609V4.68836H62.879V9.81836H65.139V8.95836H66.419V10.3284H65.529V11.1784H62.489ZM75.1664 11.1784V9.46836H71.6364V7.25836H72.5164V6.39836H73.3964V5.54836H74.2864V4.68836H76.4464V11.1784H75.1664ZM72.9064 8.09836H75.1664V6.05836H74.6764V6.90836H73.7864V7.75836H72.9064V8.09836Z" fill="black"/>
</svg>
