<svg width="82" height="117" viewBox="0 0 82 117" fill="none" xmlns="http://www.w3.org/2000/svg">
<rect x="1" y="6.56836" width="71" height="71" rx="5.5" stroke="#2B5418"/>
<path fill-rule="evenodd" clip-rule="evenodd" d="M53.8333 40.8184V35.8184H51.1667V33.3184H48.5V30.8184H45.8333V28.3184H43.1667V25.8184H37.8333V23.3184H21.8333V25.8184H19.1667V28.3184H16.5V48.3184H19.1667V50.8184H21.8333V53.3184H32.5V50.8184H35.1667V48.3184H24.5V45.8184H21.8333V30.8184H24.5V28.3184H35.1667V30.8184H40.5V33.3184H43.1667V35.8184H45.8333V38.3184H48.5V40.8184H51.1667V43.3184H45.8333V45.8184H48.5V48.3184H53.8333V45.8184H56.5V40.8184H53.8333ZM37.8333 48.3184V50.8184H40.5V48.3184H37.8333ZM40.5 48.3184H45.8333V45.8184H40.5V48.3184ZM51.1667 55.8184V50.8184H48.5V55.8184H51.1667ZM35.1667 50.8184V55.8184H37.8333V50.8184H35.1667ZM40.5 60.8184H45.8333V58.3184H40.5V60.8184ZM37.8333 55.8184V58.3184H40.5V55.8184H37.8333ZM45.8333 58.3184H48.5V55.8184H45.8333V58.3184ZM45.8333 50.8184H48.5V48.3184H45.8333V50.8184ZM40.5 55.8184H45.8333V50.8184H40.5V55.8184Z" fill="#78E846"/>
<path d="M1.293 101.211V93.8924H2.437V92.7744H6.389V93.8924H7.546V97.8704H6.389V98.9884H2.944V101.211H1.293ZM2.944 97.2074H5.882V94.5554H2.944V97.2074ZM11.57 101.211V100.106H10.426V93.8924H11.57V92.7744H15.522V93.8924H16.679V95.6604H15.015V94.5554H12.077V96.1154H14.378V97.8704H12.077V99.4434H15.015V98.3254H16.679V100.106H15.522V101.211H11.57ZM19.559 101.211V94.9974H20.703V93.8924H21.847V92.7744H23.511V93.8924H24.655V94.9974H25.812V101.211H24.148V98.9884H21.21V101.211H19.559ZM21.21 97.2074H24.148V95.6604H23.004V94.5554H22.354V95.6604H21.21V97.2074ZM28.692 101.211V93.8924H29.836V92.7744H33.788V93.8924H34.945V97.8704H33.788V98.9884H33.229V99.4434H34.36V101.211H32.722V100.106H31.552V98.9884H30.343V101.211H28.692ZM30.343 97.2074H33.281V94.5554H30.343V97.2074ZM38.969 101.211V100.106H37.825V92.7744H39.476V99.4434H42.414V98.3254H44.078V100.106H42.921V101.211H38.969ZM1.293 116.211V107.774H2.944V108.892H4.088V109.997H5.245V113.325H5.882V107.774H7.546V116.211H5.882V115.106H4.738V113.988H3.581V110.66H2.944V116.211H1.293ZM11.57 116.211V115.106H10.426V108.892H11.57V107.774H15.522V108.892H16.679V110.66H15.015V109.555H12.077V111.115H14.378V112.87H12.077V114.443H15.015V113.325H16.679V115.106H15.522V116.211H11.57ZM20.703 116.211V115.106H19.559V108.892H20.703V107.774H24.655V108.892H25.812V111.765H24.148V109.555H21.21V114.443H24.148V112.207H25.812V115.106H24.655V116.211H20.703ZM28.692 116.211V108.892H29.836V107.774H31.487V109.555H30.343V111.115H30.98V109.997H32.137V108.892H33.281V107.774H34.945V109.555H33.788V110.66H32.644V111.765H31.487V112.207H32.644V113.325H33.788V114.443H34.945V116.211H33.281V115.106H32.137V113.988H30.98V112.87H30.343V116.211H28.692ZM38.969 116.211V115.106H37.825V107.774H39.476V114.443H42.414V113.325H44.078V115.106H42.921V116.211H38.969ZM46.958 116.211V109.997H48.102V108.892H49.246V107.774H50.91V108.892H52.054V109.997H53.211V116.211H51.547V113.988H48.609V116.211H46.958ZM48.609 112.207H51.547V110.66H50.403V109.555H49.753V110.66H48.609V112.207ZM56.091 116.068V114.287H57.742V116.068H56.091ZM60.6284 116.068V114.287H62.2794V116.068H60.6284ZM65.1657 116.068V114.287H66.8167V116.068H65.1657Z" fill="#78E846"/>
<rect width="39" height="15" transform="translate(42.5 0.0683594)" fill="#78E846"/>
<path d="M48.4382 11.1784V10.3284H47.5582V4.68836H48.8282V9.81836H51.0882V8.95836H52.3682V10.3284H51.4782V11.1784H48.4382ZM56.3436 11.1784V10.3284H55.4636V8.60836H54.5836V4.68836H55.8536V8.09836H56.7336V9.81836H57.2336V8.09836H58.1136V4.68836H59.3936V8.60836H58.5036V10.3284H57.6236V11.1784H56.3436ZM62.489 11.1784V10.3284H61.609V4.68836H62.879V9.81836H65.139V8.95836H66.419V10.3284H65.529V11.1784H62.489ZM75.1664 11.1784V9.46836H71.6364V7.25836H72.5164V6.39836H73.3964V5.54836H74.2864V4.68836H76.4464V11.1784H75.1664ZM72.9064 8.09836H75.1664V6.05836H74.6764V6.90836H73.7864V7.75836H72.9064V8.09836Z" fill="black"/>
</svg>
