<svg width="81" height="117" viewBox="0 0 81 117" fill="none" xmlns="http://www.w3.org/2000/svg">
<rect x="1" y="6.56836" width="71" height="71" rx="5.5" stroke="#2B5418"/>
<path d="M47.0001 43.8182V40.3182H45.2501V38.5682H43.5001V36.8182H40V33.3181H38.25V35.0681H34.75V33.3181H33V36.8182H29.4999V38.5682H27.7499V40.3182H25.9999V43.8182H24.2499V50.8183H25.9999V54.3183H27.7499V56.0684H29.4999V57.8184H33V59.5684H40V57.8184H43.5001V56.0684H45.2501V54.3183H47.0001V50.8183H48.7501V43.8182H47.0001ZM41.7502 49.0681V52.5681H38.2502V54.3181H34.7502V52.5681H31.2501V49.0681H29.5001V45.5681H31.2501V42.068H34.7502V40.318H38.2502V42.068H41.7502V45.5681H43.5003V49.0681H41.7502Z" fill="#78E846"/>
<path d="M31.257 31.5686H33.007V33.3186H31.257V31.5686Z" fill="#78E846"/>
<path d="M29.5052 29.8191H31.2552V31.5691H29.5052V29.8191Z" fill="#78E846"/>
<path d="M27.7534 28.0673H29.5034V29.8173H27.7534V28.0673Z" fill="#78E846"/>
<path d="M29.5052 26.3179H31.2552V28.0679H29.5052V26.3179Z" fill="#78E846"/>
<path d="M31.257 24.5684H41.7571V26.3184H31.257V24.5684Z" fill="#78E846"/>
<path d="M40.0067 31.5686H41.7567V33.3186H40.0067V31.5686Z" fill="#78E846"/>
<path d="M41.7493 29.8191H43.4993V31.5691H41.7493V29.8191Z" fill="#78E846"/>
<path d="M43.5011 28.0673H45.2511V29.8173H43.5011V28.0673Z" fill="#78E846"/>
<path d="M41.7493 26.3179H43.4993V28.0679H41.7493V26.3179Z" fill="#78E846"/>
<path d="M38.2549 28.0673H40.0049V29.8173H38.2549V28.0673Z" fill="#78E846"/>
<path d="M36.5031 29.8191H38.2531V31.5691H36.5031V29.8191Z" fill="#78E846"/>
<path d="M2.437 101.211V100.106H1.293V93.8924H2.437V92.7744H6.389V93.8924H7.546V96.7654H5.882V94.5554H2.944V99.4434H5.882V97.2074H7.546V100.106H6.389V101.211H2.437ZM10.426 101.211V92.7744H12.077V96.1154H12.714V94.9974H14.378V96.1154H15.015V92.7744H16.679V101.211H15.015V97.8704H12.077V101.211H10.426ZM19.559 101.211V94.9974H20.703V93.8924H21.847V92.7744H23.511V93.8924H24.655V94.9974H25.812V101.211H24.148V98.9884H21.21V101.211H19.559ZM21.21 97.2074H24.148V95.6604H23.004V94.5554H22.354V95.6604H21.21V97.2074ZM28.692 101.211V93.8924H29.836V92.7744H33.788V93.8924H34.945V97.8704H33.788V98.9884H33.229V99.4434H34.36V101.211H32.722V100.106H31.552V98.9884H30.343V101.211H28.692ZM30.343 97.2074H33.281V94.5554H30.343V97.2074ZM37.825 101.211V99.4434H38.969V94.5554H37.825V92.7744H41.777V94.5554H40.62V99.4434H41.777V101.211H37.825ZM45.8042 101.211V100.106H44.6602V98.3254H46.3112V99.4434H49.2492V97.8704H45.8042V96.7654H44.6602V93.8924H45.8042V92.7744H49.7562V93.8924H50.9132V95.6604H49.2492V94.5554H46.3112V96.1154H49.7562V97.2074H50.9132V100.106H49.7562V101.211H45.8042ZM53.7932 101.211V93.8924H54.9372V92.7744H56.5882V93.8924H57.7452V96.1154H58.3822V93.8924H59.5392V92.7744H61.2032V93.8924H62.3342V101.211H60.6962V94.5554H60.0462V96.7654H58.8892V100.106H57.2382V96.7654H56.0812V94.5554H55.4442V101.211H53.7932ZM65.0971 101.211V94.9974H66.2411V93.8924H67.3851V92.7744H69.0491V93.8924H70.1931V94.9974H71.3501V101.211H69.6861V98.9884H66.7481V101.211H65.0971ZM66.7481 97.2074H69.6861V95.6604H68.5421V94.5554H67.8921V95.6604H66.7481V97.2074ZM1.293 116.211V108.892H2.437V107.774H6.389V108.892H7.546V112.87H6.389V113.988H5.83V114.443H6.961V116.211H5.323V115.106H4.153V113.988H2.944V116.211H1.293ZM2.944 112.207H5.882V109.555H2.944V112.207ZM10.426 116.211V114.443H11.57V109.555H10.426V107.774H14.378V109.555H13.221V114.443H14.378V116.211H10.426ZM17.2612 116.211V107.774H18.9122V108.892H20.0562V109.997H21.2132V113.325H21.8502V107.774H23.5142V116.211H21.8502V115.106H20.7062V113.988H19.5492V110.66H18.9122V116.211H17.2612ZM27.5382 116.211V115.106H26.3942V108.892H27.5382V107.774H31.4902V108.892H32.6472V111.765H30.9832V109.555H28.0452V114.443H30.9832V113.988H29.8392V112.87H28.6822V111.115H30.3462V112.207H32.6472V115.106H31.4902V116.211H27.5382Z" fill="#78E846"/>
<rect width="44" height="15" transform="translate(36.5 0.0683594)" fill="#78E846"/>
<path d="M42.3093 11.1784V10.3284H41.4293V4.68836H42.6993V9.81836H44.9593V8.95836H46.2393V10.3284H45.3493V11.1784H42.3093ZM50.2147 11.1784V10.3284H49.3347V8.60836H48.4547V4.68836H49.7247V8.09836H50.6047V9.81836H51.1047V8.09836H51.9847V4.68836H53.2647V8.60836H52.3747V10.3284H51.4947V11.1784H50.2147ZM56.3601 11.1784V10.3284H55.4801V4.68836H56.7501V9.81836H59.0101V8.95836H60.2901V10.3284H59.4001V11.1784H56.3601ZM67.2675 11.1784V6.05836H66.7775V6.90836H65.5075V5.54836H66.3875V4.68836H67.6575V5.54836H68.5475V11.1784H67.2675ZM71.6453 11.1784V10.3284H70.7653V8.09836H71.6453V7.25836H74.2953V6.05836H72.0353V6.90836H70.7653V5.54836H71.6453V4.68836H74.6853V5.54836H75.5753V7.75836H74.6853V8.60836H72.0353V9.81836H74.2953V8.95836H75.5753V10.3284H74.6853V11.1784H71.6453Z" fill="black"/>
</svg>
