<svg width="82" height="117" viewBox="0 0 82 117" fill="none" xmlns="http://www.w3.org/2000/svg">
<rect x="1" y="6.56836" width="71" height="71" rx="5.5" stroke="#2B5418"/>
<path fill-rule="evenodd" clip-rule="evenodd" d="M15.5 37.0684V34.5684H18V32.0684H20.5V29.5684H23V27.0684H25.5V24.5684H28V22.0684H45V24.5684H47.5V27.0684H50V29.5684H52.5V32.0684H55V34.5684H57.5V37.0684H60V39.5684H57.5V42.0684H55V44.5684H52.5V47.0684H50V49.5684H47.5V52.0684H45V54.5684H28V52.0684H25.5V49.5684H23V47.0684H20.5V44.5684H18V42.0684H15.5V39.5684H13V37.0684H15.5ZM18 34.5684V37.0684H20.5V39.5684H23V42.0684H25.5V44.5684H28V47.0684H30.5V49.5684H33V52.0684H40V49.5684H42.5V47.0684H45V44.5684H47.5V42.0684H50V39.5684H52.5V37.0684H55V34.5684H52.5V32.0684H50V29.5684H47.5V27.0684H45V24.5684H28V27.0684H25.5V29.5684H23V32.0684H20.5V34.5684H18ZM23 32.0684V34.5684H25.5V37.0684H28V39.5684H30.5V42.0684H33V44.5684H35.5V47.0684H37.5V44.5684H40V42.0684H42.5V39.5684H45V37.0684H47.5V34.5684H50V32.0684H47.5V29.5684H45V27.0684H28V29.5684H25.5V32.0684H23Z" fill="#78E846"/>
<path d="M2.437 101.211V100.106H1.293V93.8924H2.437V92.7744H6.389V93.8924H7.546V96.7654H5.882V94.5554H2.944V99.4434H5.882V97.2074H7.546V100.106H6.389V101.211H2.437ZM10.426 101.211V92.7744H12.077V99.4434H14.378V100.106H13.221V101.211H10.426ZM18.4052 101.211V100.106H17.2612V93.8924H18.4052V92.7744H22.3572V93.8924H23.5142V100.106H22.3572V101.211H18.4052ZM18.9122 99.4434H21.8502V94.5554H18.9122V99.4434ZM26.3942 101.211V94.9974H27.5382V93.8924H28.6822V92.7744H30.3462V93.8924H31.4902V94.9974H32.6472V101.211H30.9832V98.9884H28.0452V101.211H26.3942ZM28.0452 97.2074H30.9832V95.6604H29.8392V94.5554H29.1892V95.6604H28.0452V97.2074ZM35.5402 101.211V94.9974H36.6842V93.8924H37.8282V92.7744H39.4922V93.8924H40.6362V94.9974H41.7932V101.211H40.1292V98.9884H37.1912V101.211H35.5402ZM37.1912 97.2074H40.1292V95.6604H38.9852V94.5554H38.3352V95.6604H37.1912V97.2074ZM44.6732 101.211V100.106H43.5292V92.7744H45.1802V99.4434H48.1182V98.3254H49.7822V100.106H48.6252V101.211H44.6732ZM52.6622 101.211V100.106H51.5182V93.8924H52.6622V92.7744H56.6142V93.8924H57.7712V95.6604H56.1072V94.5554H53.1692V96.1154H55.4702V97.8704H53.1692V99.4434H56.1072V98.3254H57.7712V100.106H56.6142V101.211H52.6622Z" fill="#78E846"/>
<path d="M2.437 116.211V115.106H1.293V108.892H2.437V107.774H6.389V108.892H7.546V112.87H6.389V113.988H5.83V114.443H6.961V116.211H5.323V115.106H4.153V113.988H2.944V116.211H2.437ZM2.944 112.207H5.882V109.555H2.944V112.207ZM11.57 116.211V115.106H10.426V108.892H11.57V107.774H15.522V108.892H16.679V115.106H15.522V116.211H11.57ZM12.077 114.443H15.015V109.555H12.077V114.443ZM19.559 116.211V115.106H18.415V108.892H19.559V107.774H23.511V108.892H24.668V115.106H23.511V116.211H19.559ZM20.066 114.443H23.004V109.555H20.066V114.443ZM26.3942 116.211V115.106H25.2502V108.892H26.3942V107.774H30.3462V108.892H31.5032V115.106H30.3462V116.211H26.3942ZM26.9012 114.443H29.8392V109.555H26.9012V114.443ZM34.3832 116.211V115.106H33.2392V113.325H34.8902V114.443H37.8282V112.87H34.3832V111.765H33.2392V108.892H34.3832V107.774H38.3352V108.892H39.4922V110.66H37.8282V109.555H34.8902V111.115H38.3352V112.207H39.4922V115.106H38.3352V116.211H34.3832ZM42.3722 116.211V115.106H41.2282V108.892H42.3722V107.774H46.3242V108.892H47.4812V115.106H46.3242V116.211H42.3722ZM42.8792 114.443H45.8172V109.555H42.8792V114.443ZM50.3612 116.211V115.106H49.2172V108.892H50.3612V107.774H54.3132V108.892H55.4702V115.106H54.3132V116.211H50.3612ZM50.8682 114.443H53.8062V109.555H50.8682V114.443Z" fill="#78E846"/>
<rect width="39" height="15" transform="translate(42.5 0.0683594)" fill="#78E846"/>
<path d="M48.4382 11.1784V10.3284H47.5582V4.68836H48.8282V9.81836H51.0882V8.95836H52.3682V10.3284H51.4782V11.1784H48.4382ZM56.3436 11.1784V10.3284H55.4636V8.60836H54.5836V4.68836H55.8536V8.09836H56.7336V9.81836H57.2336V8.09836H58.1136V4.68836H59.3936V8.60836H58.5036V10.3284H57.6236V11.1784H56.3436ZM62.489 11.1784V10.3284H61.609V4.68836H62.879V9.81836H65.139V8.95836H66.419V10.3284H65.529V11.1784H62.489ZM72.5164 11.1784V10.3284H71.6364V5.54836H72.5164V4.68836H75.5564V5.54836H76.4464V6.90836H75.1664V6.05836H72.9064V7.25836H75.5564V8.09836H76.4464V10.3284H75.5564V11.1784H72.5164ZM72.9064 9.81836H75.1664V8.60836H72.9064V9.81836Z" fill="black"/>
</svg>