<svg width="82" height="117" viewBox="0 0 82 117" fill="none" xmlns="http://www.w3.org/2000/svg">
<rect x="1" y="6.56836" width="71" height="71" rx="5.5" stroke="#2B5418"/>
<g clip-path="url(#clip0_1_58)">
<path fill-rule="evenodd" clip-rule="evenodd" d="M22.139 52.1301V54.4397H24.4486V59.0647H17.514V52.1292L22.139 52.1301ZM19.8275 56.7551H22.139L22.1371 56.7522V54.4426H19.8275V56.7551Z" fill="#78E846"/>
<path d="M26.763 52.1292V54.4417H24.4515V52.1292H26.763Z" fill="#78E846"/>
<path d="M24.4505 38.2542H26.7611V40.5667H29.0726V42.8792H31.3831V45.1917H33.6947L33.6956 45.1897V47.5022H36.0062V45.1917H38.3177V47.5042H36.0072V49.8147H38.3177V52.1272H40.6292V54.4397H33.6947V52.1272H31.3831V49.8147H29.0726V47.5022H26.7611V45.1897H24.4505V42.8772H22.139V35.9417H24.4505V38.2542Z" fill="#78E846"/>
<path d="M24.4515 52.1292L22.139 52.1301V49.8167H24.4505L24.4515 52.1292Z" fill="#78E846"/>
<path d="M29.0755 52.1292H26.763L26.764 49.8167H29.0755V52.1292Z" fill="#78E846"/>
<path d="M26.764 49.8167H24.4505L24.4515 47.5042H26.763L26.764 49.8167Z" fill="#78E846"/>
<path d="M40.6302 45.1917H38.3177L38.3187 42.8792H40.6302V45.1917Z" fill="#78E846"/>
<path d="M36.0052 42.8792H33.6937V40.5667H36.0052V42.8792Z" fill="#78E846"/>
<path d="M42.9427 42.8792H40.6302L40.6312 40.5667H42.9427V42.8792Z" fill="#78E846"/>
<path d="M31.388 40.5667H29.0765V38.2542H31.388V40.5667Z" fill="#78E846"/>
<path d="M38.3177 40.5667H36.0052L36.0062 38.2542H38.3177V40.5667Z" fill="#78E846"/>
<path d="M45.2552 40.5667H42.9427L42.9437 38.2542H45.2552V40.5667Z" fill="#78E846"/>
<path d="M36.0052 35.9417H33.7005V38.2542H31.388L31.389 35.9417H33.6937V33.6292H36.0052V35.9417Z" fill="#78E846"/>
<path d="M40.6302 38.2542H38.3177L38.3187 35.9417H40.6302V38.2542Z" fill="#78E846"/>
<path d="M47.5677 38.2542H45.2552L45.2562 35.9417H47.5677V38.2542Z" fill="#78E846"/>
<path d="M42.9427 35.9417H40.6302L40.6312 33.6292H42.9427V35.9417Z" fill="#78E846"/>
<path d="M49.8802 35.9417H47.5677L47.5687 33.6292H49.8802V35.9417Z" fill="#78E846"/>
<path d="M38.3177 33.6292H36.0052L36.0062 31.3167H38.3177V33.6292Z" fill="#78E846"/>
<path d="M45.2552 33.6292H42.9427L42.9437 31.3167H45.2552V33.6292Z" fill="#78E846"/>
<path d="M54.5023 31.3167H52.1927V33.6292H49.8802L49.8812 31.3167H52.1908V26.6917H49.8802V29.0042H47.5687V26.6917H49.8802L49.8792 24.3792H45.2562V22.0667H54.5013L54.5023 31.3167Z" fill="#78E846"/>
<path d="M47.5677 31.3167H45.2552L45.2562 29.0042H47.5687L47.5677 31.3167Z" fill="#78E846"/>
<path d="M40.6302 31.3147H38.3187V29.0022H40.6302V31.3147Z" fill="#78E846"/>
<path d="M42.9427 29.0042H40.6312V26.6917H42.9427V29.0042Z" fill="#78E846"/>
<path d="M45.2552 26.6917H42.9427L42.9437 24.3792H45.2562L45.2552 26.6917Z" fill="#78E846"/>
</g>
<path d="M1.293 101.211V99.4434H2.437V94.5554H1.293V92.7744H5.245V94.5554H4.088V99.4434H5.245V101.211H1.293ZM8.12816 101.211V93.8924H9.27216V92.7744H13.2242V93.8924H14.3812V97.8704H13.2242V98.9884H12.6652V99.4434H13.7962V101.211H12.1582V100.106H10.9882V98.9884H9.77916V101.211H8.12816ZM9.77916 97.2074H12.7172V94.5554H9.77916V97.2074ZM18.4052 101.211V100.106H17.2612V93.8924H18.4052V92.7744H22.3572V93.8924H23.5142V100.106H22.3572V101.211H18.4052ZM18.9122 99.4434H21.8502V94.5554H18.9122V99.4434ZM26.3942 101.211V92.7744H28.0452V93.8924H29.1892V94.9974H30.3462V98.3254H30.9832V92.7744H32.6472V101.211H30.9832V100.106H29.8392V98.9884H28.6822V95.6604H28.0452V101.211H26.3942ZM2.437 116.211V115.106H1.293V113.325H2.944V114.443H5.882V112.87H2.437V111.765H1.293V108.892H2.437V107.774H6.389V108.892H7.546V110.66H5.882V109.555H2.944V111.115H6.389V112.207H7.546V115.106H6.389V116.211H2.437ZM11.57 116.211V115.106H10.426V107.774H12.077V114.443H12.714V112.207H13.871V108.892H15.522V112.207H16.679V114.443H17.329V107.774H18.967V115.106H17.836V116.211H16.172V115.106H15.015V112.87H14.378V115.106H13.221V116.211H11.57ZM23.0009 116.211V115.106H21.8569V108.892H23.0009V107.774H26.9529V108.892H28.1099V115.106H26.9529V116.211H23.0009ZM23.5079 114.443H26.4459V109.555H23.5079V114.443ZM30.9899 116.211V108.892H32.1339V107.774H36.0859V108.892H37.2429V112.87H36.0859V113.988H35.5269V114.443H36.6579V116.211H35.0199V115.106H33.8499V113.988H32.6409V116.211H30.9899ZM32.6409 112.207H35.5789V109.555H32.6409V112.207ZM40.1229 116.211V107.774H44.0749V108.892H45.2189V109.997H46.3759V113.988H45.2189V115.106H44.0749V116.211H40.1229ZM41.7739 114.443H43.5679V113.325H44.7119V110.66H43.5679V109.555H41.7739V114.443Z" fill="#78E846"/>
<rect width="39" height="15" transform="translate(42.5 0.0683594)" fill="#78E846"/>
<path d="M48.4382 11.1784V10.3284H47.5582V4.68836H48.8282V9.81836H51.0882V8.95836H52.3682V10.3284H51.4782V11.1784H48.4382ZM56.3436 11.1784V10.3284H55.4636V8.60836H54.5836V4.68836H55.8536V8.09836H56.7336V9.81836H57.2336V8.09836H58.1136V4.68836H59.3936V8.60836H58.5036V10.3284H57.6236V11.1784H56.3436ZM62.489 11.1784V10.3284H61.609V4.68836H62.879V9.81836H65.139V8.95836H66.419V10.3284H65.529V11.1784H62.489ZM72.5164 11.1784V10.3284H71.6364V8.09836H72.5164V7.25836H75.1664V6.05836H72.9064V6.90836H71.6364V5.54836H72.5164V4.68836H75.5564V5.54836H76.4464V7.75836H75.5564V8.60836H72.9064V9.81836H75.1664V8.95836H76.4464V10.3284H75.5564V11.1784H72.5164Z" fill="black"/>
<defs>
<clipPath id="clip0_1_58">
<rect width="37" height="37" fill="white" transform="translate(17.5031 22.0675)"/>
</clipPath>
</defs>
</svg>
